<svg xmlns="http://www.w3.org/2000/svg" width="193" height="48" fill-rule="evenodd" xmlns:v="https://vecta.io/nano"><rect fill="#fc4c02" x="4" y="4" width="185" height="40" rx="2"/><path d="M27 25.164l1.736.35c-.112 1.101-.513 1.993-1.204 2.674s-1.582 1.022-2.674 1.022c-1.241 0-2.256-.434-3.045-1.302s-1.183-2.165-1.183-3.892c0-1.605.413-2.844 1.239-3.717s1.818-1.309 2.975-1.309c1.017 0 1.876.32 2.576.959s1.111 1.482 1.232 2.527l-1.708.266c-.243-1.484-.938-2.226-2.086-2.226-.719 0-1.318.289-1.799.868s-.721 1.465-.721 2.66c0 1.223.236 2.135.707 2.737a2.2 2.2 0 0 0 1.813.903c1.223 0 1.937-.84 2.142-2.52h0zm6.519 2.604c.551 0 .996-.217 1.337-.651s.511-1.043.511-1.827-.17-1.393-.511-1.827-.786-.651-1.337-.651a1.64 1.64 0 0 0-1.351.644c-.341.429-.511 1.041-.511 1.834 0 .803.17 1.416.511 1.841s.791.637 1.351.637h0zm0 1.442c-.999 0-1.822-.345-2.471-1.036s-.973-1.652-.973-2.884c0-1.213.334-2.17 1.001-2.87s1.482-1.05 2.443-1.05a3.2 3.2 0 0 1 2.429 1.05c.658.7.987 1.657.987 2.87 0 1.232-.32 2.193-.959 2.884s-1.458 1.036-2.457 1.036h0zm5.245-.21v-7.42h1.54v.714h.028c.205-.261.49-.481.854-.658a2.59 2.59 0 0 1 1.148-.266c.821 0 1.468.245 1.939.735s.707 1.169.707 2.037V29h-1.582v-4.438c0-1.148-.481-1.722-1.442-1.722-.485 0-.873.14-1.162.42s-.434.658-.434 1.134V29h-1.596zm8.465 0v-7.42h1.54v.714h.028c.205-.261.49-.481.854-.658a2.59 2.59 0 0 1 1.148-.266c.821 0 1.468.245 1.939.735s.707 1.169.707 2.037V29h-1.582v-4.438c0-1.148-.481-1.722-1.442-1.722-.485 0-.873.14-1.162.42s-.434.658-.434 1.134V29h-1.596zm13.393-2.464l1.148.938c-.719 1.157-1.745 1.736-3.08 1.736-1.027 0-1.864-.357-2.513-1.071s-.973-1.664-.973-2.849.322-2.135.966-2.849 1.461-1.071 2.45-1.071 1.799.355 2.429 1.064.945 1.661.945 2.856v.476h-5.18c.019.616.189 1.108.511 1.477s.768.553 1.337.553a2.2 2.2 0 0 0 .728-.112 1.62 1.62 0 0 0 .567-.336c.163-.149.287-.28.371-.392l.294-.42h0zm-3.794-1.974h3.612c-.028-.523-.196-.95-.504-1.281s-.747-.497-1.316-.497c-.532 0-.957.177-1.274.532s-.49.77-.518 1.246h0zm11.503 1.484l1.582.336c-.149.896-.49 1.591-1.022 2.086s-1.237.742-2.114.742c-1.008 0-1.834-.345-2.478-1.036s-.966-1.652-.966-2.884c0-1.185.324-2.135.973-2.849s1.468-1.071 2.457-1.071c.849 0 1.549.254 2.1.763s.873 1.169.966 1.981l-1.498.252c-.159-1.036-.677-1.554-1.554-1.554-.569 0-1.022.217-1.358.651s-.504 1.043-.504 1.827.163 1.393.49 1.827.784.651 1.372.651c.868 0 1.386-.574 1.554-1.722h0zm3.691.476v-3.57h-1.12V21.58h1.162v-1.82h1.512v1.82h1.862v1.372H73.59v3.402c0 .411.063.698.189.861s.385.245.777.245h.588V29h-.714c-.896 0-1.521-.198-1.876-.595s-.532-1.024-.532-1.883h0zM81.992 29l-1.638-7.42h1.568l1.05 5.166H83l1.764-5.166h1.442l1.652 5.152h.028l1.19-5.152h1.54L88.838 29h-1.54l-1.806-5.572h-.028L83.518 29h-1.526zm10.411 0v-7.42h1.596V29h-1.596zm-.028-8.638V18.78h1.652v1.582h-1.652zm4.321 6.16v-3.57h-1.12V21.58h1.162v-1.82h1.512v1.82h1.862v1.372h-1.848v3.402c0 .411.063.698.189.861s.385.245.777.245h.588V29h-.714c-.896 0-1.521-.198-1.876-.595s-.532-1.024-.532-1.883h0zM101.87 29V18.78h1.596v3.528h.028c.168-.252.443-.471.826-.658s.77-.28 1.162-.28c.793 0 1.437.243 1.932.728s.742 1.148.742 1.988V29h-1.582v-4.536c0-.485-.131-.877-.392-1.176s-.639-.448-1.134-.448c-.476 0-.859.14-1.148.42s-.434.639-.434 1.078V29h-1.596zm58.146-10.276l-2.442 4.969-2.443-4.969h-3.591L157.574 31l6.031-12.276h-3.589zm-19.848 4.339c0-.373-.129-.652-.385-.832s-.604-.272-1.04-.272h-1.634v2.261h1.618c.449 0 .801-.099 1.056-.297s.385-.474.385-.826v-.033zM149.175 18l6.033 12.276h-3.591l-2.442-4.97-2.44 4.97h-2.437-1.152-3.123l-2.114-3.3h-.03-.77v3.3h-3.747V18.724h5.478c1.003 0 1.828.118 2.473.355s1.166.559 1.561.966a3.54 3.54 0 0 1 .77 1.187c.172.439.256.959.256 1.551v.035c0 .846-.198 1.562-.594 2.144s-.933 1.047-1.617 1.386l1.948 2.931L149.175 18zm16.791 0l-6.032 12.276h3.591l2.441-4.97 2.443 4.97H172L165.967 18zm-43.479 3.99h3.299v8.286h3.748V21.99h3.3v-3.266h-10.346v3.266zm-.135 3.071c.229.407.344.903.344 1.485v.034c0 .604-.117 1.15-.353 1.634a3.47 3.47 0 0 1-.993 1.23c-.428.335-.946.593-1.554.775s-1.292.274-2.049.274c-1.142 0-2.208-.164-3.195-.487s-1.838-.812-2.553-1.46L114 26.088c.608.483 1.25.83 1.921 1.039a6.71 6.71 0 0 0 2.002.314c.342 0 .587-.044.737-.131s.224-.21.224-.363v-.033c0-.167-.111-.306-.328-.414s-.628-.225-1.225-.346l-1.801-.463a6.1 6.1 0 0 1-1.505-.677 3.21 3.21 0 0 1-1.034-1.04c-.257-.418-.384-.931-.384-1.535v-.033a3.75 3.75 0 0 1 .313-1.535 3.52 3.52 0 0 1 .912-1.237c.401-.351.898-.627 1.491-.826s1.271-.297 2.041-.297c1.088 0 2.04.132 2.857.397a6.79 6.79 0 0 1 2.202 1.187l-1.825 2.608a5.55 5.55 0 0 0-1.689-.868c-.594-.182-1.149-.273-1.674-.273-.277 0-.482.044-.616.132s-.2.204-.2.346v.033c0 .155.1.287.304.398s.598.225 1.184.346a16.18 16.18 0 0 1 1.955.477c.586.189 1.092.427 1.513.719s.748.639.977 1.048h0z" fill="#fff"/></svg>